<?xml version="1.0" encoding="UTF-8"?>
<svg version="1.1" xmlns="http://www.w3.org/2000/svg" width="320" height="320">
<path d="M0 0 C0.79141388 0.00087616 1.58282776 0.00175232 2.39822388 0.00265503 C34.97450922 0.12126349 65.81527375 9.62073786 92.5625 28.375 C93.58214844 29.07625 94.60179687 29.7775 95.65234375 30.5 C111.95084081 42.3385048 125.94385176 57.28497139 136.5625 74.375 C136.97145508 75.02500977 137.38041016 75.67501953 137.80175781 76.34472656 C153.47835097 101.61767958 161.01778696 130.21686531 160.9375 159.8125 C160.93662384 160.60391388 160.93574768 161.39532776 160.93484497 162.21072388 C160.81623651 194.78700922 151.31676214 225.62777375 132.5625 252.375 C131.86125 253.39464844 131.16 254.41429687 130.4375 255.46484375 C118.5989952 271.76334081 103.65252861 285.75635176 86.5625 296.375 C85.91249023 296.78395508 85.26248047 297.19291016 84.59277344 297.61425781 C59.31982042 313.29085097 30.72063469 320.83028696 1.125 320.75 C0.33358612 320.74912384 -0.45782776 320.74824768 -1.27322388 320.74734497 C-33.84950922 320.62873651 -64.69027375 311.12926214 -91.4375 292.375 C-92.45714844 291.67375 -93.47679688 290.9725 -94.52734375 290.25 C-110.82584081 278.4114952 -124.81885176 263.46502861 -135.4375 246.375 C-135.84645508 245.72499023 -136.25541016 245.07498047 -136.67675781 244.40527344 C-152.35335097 219.13232042 -159.89278696 190.53313469 -159.8125 160.9375 C-159.81162384 160.14608612 -159.81074768 159.35467224 -159.80984497 158.53927612 C-159.69123651 125.96299078 -150.19176214 95.12222625 -131.4375 68.375 C-130.73625 67.35535156 -130.035 66.33570312 -129.3125 65.28515625 C-117.4739952 48.98665919 -102.52752861 34.99364824 -85.4375 24.375 C-84.78749023 23.96604492 -84.13748047 23.55708984 -83.46777344 23.13574219 C-58.19482042 7.45914903 -29.59563469 -0.08028696 0 0 Z " fill="#02356E" transform="translate(159.4375,-0.37499999999999994)"/>
<path d="M0 0 C22.1410492 17.01896033 40.27552578 41.61648483 44 70 C45.99643006 92.51876894 40.90138735 115.00628637 26.71484375 132.87890625 C17.41174676 143.71531875 6.1328361 150.52513739 -8 153 C-11.74776003 153.23811336 -15.49537903 153.23091679 -19.25 153.25 C-20.74853516 153.2809375 -20.74853516 153.2809375 -22.27734375 153.3125 C-28.74297994 153.34630725 -34.02123725 152.48833629 -40 150 C-40.33 148.35 -40.66 146.7 -41 145 C-40.29617187 144.68289062 -39.59234375 144.36578125 -38.8671875 144.0390625 C-18.50784562 134.41754584 -2.02191393 120.14388234 5.9375 98.5625 C11.15795587 83.29045452 10.12696405 68.70319149 3.71484375 54.06640625 C-4.60907139 37.34901679 -19.94214737 30.62788627 -36.8359375 24.96484375 C-55.14498916 19.38171318 -74.52344101 21.36276022 -91.48046875 30.30859375 C-97.81326067 33.93153983 -103.53880893 38.16894636 -109 43 C-109.763125 43.6703125 -110.52625 44.340625 -111.3125 45.03125 C-122.62252059 56.18418697 -129.04762255 73.70780574 -129.38061523 89.46582031 C-129.32102516 112.37950075 -120.40604139 130.84917854 -104.75 147.375 C-87.47455275 163.63424447 -65.01581124 169.94282824 -41.8046875 169.28515625 C-16.76336212 168.07315204 5.6724388 158.76960141 25 143 C25.97646484 142.25169922 25.97646484 142.25169922 26.97265625 141.48828125 C34.64938457 135.38536967 40.47318983 127.02278896 46 119 C48.85617212 127.56851637 40.81420911 141.30111141 37 149 C32.16188587 157.28514259 26.27866407 164.76513572 20 172 C19.20916016 172.93585938 19.20916016 172.93585938 18.40234375 173.890625 C-0.12543554 194.1716724 -30.09550035 203.13181176 -56.49609375 205.28515625 C-87.33499224 206.18871633 -113.8257644 193.4559369 -136 173 C-137.15435547 171.95199219 -137.15435547 171.95199219 -138.33203125 170.8828125 C-158.63247167 151.58337999 -168.64818529 124.76736041 -170.21484375 97.22265625 C-171.01421326 65.215901 -159.67554269 35.57793696 -137.75 12.3125 C-101.51000114 -22.28596581 -41.74719698 -29.81942642 0 0 Z " fill="#FAFBFA" transform="translate(220,66)"/>
<path d="M0 0 C1.32 0 2.64 0 4 0 C2.42276961 3.15446078 -0.02788372 5.64957728 -2.3125 8.3125 C-3.28841479 9.45386789 -4.2636852 10.5957871 -5.23828125 11.73828125 C-5.71007812 12.29104736 -6.181875 12.84381348 -6.66796875 13.41333008 C-7.85400166 14.82609179 -9.00213926 16.27047162 -10.14453125 17.71875 C-18.81463318 28.37841216 -32.31504717 37.08134482 -45 42 C-44.67 41.01 -44.34 40.02 -44 39 C-43.01 38.67 -42.02 38.34 -41 38 C-42.07483643 37.97494385 -43.14967285 37.9498877 -44.25708008 37.92407227 C-48.24353022 37.82992505 -52.22980909 37.72972215 -56.21606445 37.62768555 C-57.94160965 37.58436438 -59.66719693 37.54268727 -61.39282227 37.50268555 C-63.87268764 37.44491474 -66.35234172 37.38123997 -68.83203125 37.31640625 C-69.60400345 37.29969376 -70.37597565 37.28298126 -71.17134094 37.26576233 C-74.35182933 37.17772105 -76.96235584 37.01254805 -80 36 C-80.495 34.515 -80.495 34.515 -81 33 C-79.8553125 33.23783203 -79.8553125 33.23783203 -78.6875 33.48046875 C-60.89898131 35.98669013 -42.86497227 34.88418309 -28 24 C-22.02697601 19.4265955 -17.60570698 14.5044332 -13.5078125 8.19921875 C-12.14571135 6.21252718 -10.76235062 4.63043815 -9 3 C-9.30921884 4.45903258 -9.62248799 5.91720722 -9.9375 7.375 C-10.11152344 8.18710938 -10.28554687 8.99921875 -10.46484375 9.8359375 C-11 12 -11 12 -12 14 C-7.2109759 10.35647734 -4.00509656 6.91171477 -1.23828125 1.5390625 C-0.62533203 0.77722656 -0.62533203 0.77722656 0 0 Z " fill="#1B3F67" transform="translate(264,184)"/>
<path d="M0 0 C6.22982216 5.28180575 6.22982216 5.28180575 9.19921875 8.05078125 C14.59563501 13.07257027 20.21095356 17.45609251 26.26586914 21.63769531 C29.07159024 23.58075714 31.70948125 25.45497917 34 28 C32.35 28 30.7 28 29 28 C28.814375 27.38125 28.62875 26.7625 28.4375 26.125 C27.1053621 23.64268425 27.1053621 23.64268425 23.7734375 23.21484375 C19.45282236 21.82383825 17.15405362 19.70531153 14.1875 16.4375 C10.95550208 12.76261047 10.95550208 12.76261047 7 10 C7 11.32 7 12.64 7 14 C7.66 14 8.32 14 9 14 C9 14.66 9 15.32 9 16 C3.63934642 15.38735388 0.68484953 12.91724257 -2.8125 8.9375 C-4 7 -4 7 -4 4 C-2.68 4 -1.36 4 0 4 C0 2.68 0 1.36 0 0 Z " fill="#143B67" transform="translate(76,231)"/>
<path d="M0 0 C0.33 0 0.66 0 1 0 C0.99476318 0.65484375 0.98952637 1.3096875 0.98413086 1.984375 C0.963173 4.98957333 0.9502805 7.99475621 0.9375 11 C0.92912109 12.02996094 0.92074219 13.05992187 0.91210938 14.12109375 C0.89390585 19.83700193 0.96369464 25.3687558 2 31 C2.66 31.66 3.32 32.32 4 33 C4.52005483 35.06878955 4.9686134 37.15591377 5.375 39.25 C6.52735756 44.74765404 6.52735756 44.74765404 9.25 49.5625 C9.8275 50.366875 10.405 51.17125 11 52 C10.609375 54.15234375 10.609375 54.15234375 10 56 C1.74450583 43.94300679 -2.1754077 30.6337204 -2.1875 16.0625 C-2.19974609 15.28970703 -2.21199219 14.51691406 -2.22460938 13.72070312 C-2.23718498 8.76172227 -1.58420501 4.7025216 0 0 Z " fill="#25476A" transform="translate(92,142)"/>
<path d="M0 0 C1.65 0 3.3 0 5 0 C3.73252511 2.25195063 2.46117132 4.50155747 1.1875 6.75 C0.83107422 7.38421875 0.47464844 8.0184375 0.10742188 8.671875 C-1.75248735 11.94804537 -3.63839084 15.04985101 -6 18 C-7.15603811 14.53188567 -7 11.63431887 -7 8 C-7.33 7.67 -7.66 7.34 -8 7 C-8.04063832 5.33382885 -8.042721 3.66611905 -8 2 C-7.34 2 -6.68 2 -6 2 C-5.01 3.485 -5.01 3.485 -4 5 C-3.01 5 -2.02 5 -1 5 C-0.67 3.35 -0.34 1.7 0 0 Z " fill="#133F6D" transform="translate(67,91)"/>
<path d="M0 0 C4.15863719 1.4061579 6.93286707 3.39842958 10.25 6.25 C14.47296425 9.80256151 18.75222942 12.96462801 23.41796875 15.90625 C23.94003906 16.2671875 24.46210937 16.628125 25 17 C25 17.33 25 17.66 25 18 C23.35 18 21.7 18 20 18 C19.814375 17.38125 19.62875 16.7625 19.4375 16.125 C18.1060145 13.64396371 18.1060145 13.64396371 14.78125 13.21484375 C10.27312968 11.76647038 8.20546008 9.83259243 5.0625 6.4375 C4.56943359 5.93025391 4.07636719 5.42300781 3.56835938 4.90039062 C0 1.18355583 0 1.18355583 0 0 Z " fill="#1A416C" transform="translate(85,241)"/>
<path d="M0 0 C0.66 0.33 1.32 0.66 2 1 C1.57847656 2.10859375 1.15695313 3.2171875 0.72265625 4.359375 C0.169154 5.82287248 -0.38422496 7.2864166 -0.9375 8.75 C-1.21529297 9.47960937 -1.49308594 10.20921875 -1.77929688 10.9609375 C-2.04677734 11.66992188 -2.31425781 12.37890625 -2.58984375 13.109375 C-2.83597412 13.75874023 -3.08210449 14.40810547 -3.33569336 15.07714844 C-4.01125435 17.032576 -4.52800046 18.98665757 -5 21 C-5.66 21 -6.32 21 -7 21 C-6.85936865 18.70800823 -6.71234057 16.41640814 -6.5625 14.125 C-6.48128906 12.84882812 -6.40007813 11.57265625 -6.31640625 10.2578125 C-6 7 -6 7 -5 5 C-4.01 4.67 -3.02 4.34 -2 4 C-0.79117904 1.99983534 -0.79117904 1.99983534 0 0 Z " fill="#14406D" transform="translate(59,110)"/>
<path d="M0 0 C0.79664063 0.15339844 1.59328125 0.30679688 2.4140625 0.46484375 C6.73447415 1.10961107 11.01537398 1.35042888 15.375 1.5625 C16.62216797 1.62727539 16.62216797 1.62727539 17.89453125 1.69335938 C19.92953228 1.79861805 21.96474703 1.89973072 24 2 C24 2.33 24 2.66 24 3 C20.72966072 3.19689005 17.45872059 3.38089008 14.1875 3.5625 C12.7943457 3.64661133 12.7943457 3.64661133 11.37304688 3.73242188 C10.48037109 3.78076172 9.58769531 3.82910156 8.66796875 3.87890625 C7.84578857 3.9260376 7.0236084 3.97316895 6.17651367 4.02172852 C4 4 4 4 1 3 C0.67 2.01 0.34 1.02 0 0 Z " fill="#2A4D73" transform="translate(183,217)"/>
<path d="M0 0 C-2.52475462 2.52475462 -4.73497997 3.04307871 -8.125 4.125 C-9.22070312 4.47820312 -10.31640625 4.83140625 -11.4453125 5.1953125 C-12.28835937 5.46085938 -13.13140625 5.72640625 -14 6 C-13 3 -13 3 -10.1875 1.375 C-3.94871795 -1.31623932 -3.94871795 -1.31623932 0 0 Z " fill="#1F436A" transform="translate(218,226)"/>
<path d="M0 0 C0.66 0.33 1.32 0.66 2 1 C-4.75961538 7.94230769 -4.75961538 7.94230769 -8.6875 8.125 C-9.8321875 8.063125 -9.8321875 8.063125 -11 8 C-7.71644638 4.32241995 -4.37221763 2.18610882 0 0 Z " fill="#17426D" transform="translate(129,95)"/>
<path d="M0 0 C1.98 0.99 3.96 1.98 6 3 C2.25 8.875 2.25 8.875 0 10 C0 6.7 0 3.4 0 0 Z " fill="#14406D" transform="translate(72,80)"/>
<path d="M0 0 C1.32 0 2.64 0 4 0 C2.55802132 2.88395737 0.29355765 4.76525152 -2 7 C-2.33 6.34 -2.66 5.68 -3 5 C-1.8125 2.375 -1.8125 2.375 0 0 Z " fill="#22476F" transform="translate(264,184)"/>
</svg>
