<?xml version="1.0" encoding="UTF-8"?>
<svg xmlns="http://www.w3.org/2000/svg" viewBox="0 0 1024 1024">
  <defs>
    <style>
      .cls-1 {
        fill: #093161;
      }

      .cls-2 {
        fill: #fff;
      }
    </style>
  </defs>
  <g id="Layer_2" data-name="Layer 2">
    <circle class="cls-1" cx="512" cy="512" r="512"/>
  </g>
  <g id="Layer_3" data-name="Layer 3">
    <path class="cls-2" d="M791.85,572.93c-34.77,113.4-113.42,195.76-231.81,211.97-33.06,4.45-66.06,4.73-98.75-1.57-18.98-3.87-37.19-9.67-55.27-17.17-93.91-38.34-162.99-120.01-172.1-225.15-22.05-224.03,160.17-327.9,303.2-314.7,86.88,11.65,164.68,58.36,207.3,133.67,34.04,60.14,42.34,136.93,18.87,203.25-24.4,73.49-101.19,110.5-156.15,106.07-11.21-.61-37.27-4.2-43.27-14.68-4.77-7.7,18.68-20.12,30.28-26.39,6.32-3.46,12.63-6.88,18.75-10.57,47.86-29.59,79-82.56,79.16-140.04-.03-110.25-142.28-196.53-261.98-128.99-13.08,7.58-24.83,16.41-36.78,27.15-86.48,75.73-82.14,194.35-3.44,270.66,75.78,66.13,208.28,73.71,305.41,21.05,37.35-22.14,68.29-56.38,91.46-89,2.97-3.98,6.01-9.63,5.13-5.63v.06Z"/>
  </g>
</svg>
