<?xml version="1.0" encoding="UTF-8"?>
<svg xmlns="http://www.w3.org/2000/svg" viewBox="0 0 4091.27 4091.73">
  <defs>
    <style>
      .opcat-bg {
        fill: #093161;
      }
      .opcat-symbol {
        fill: #fff;
      }
    </style>
  </defs>

  <!-- Bitcoin Logo -->
  <g id="bitcoin">
    <path fill="#F7931A" fill-rule="nonzero" d="M4030.06 2540.77c-273.24,1096.01 -1383.32,1763.02 -2479.46,1489.71 -1095.68,-273.24 -1762.69,-1383.39 -1489.33,-2479.31 273.12,-1096.13 1383.2,-1763.19 2479,-1489.95 1096.06,273.24 1763.03,1383.51 1489.76,2479.57l0.02 -0.02z"/>
    <path fill="white" fill-rule="nonzero" d="M2947.77 1754.38c40.72,-272.26 -166.56,-418.61 -450,-516.24l91.95 -368.8 -224.5 -55.94 -89.51 359.09c-59.02,-14.72 -119.63,-28.59 -179.87,-42.34l90.16 -361.46 -224.36 -55.94 -92 368.68c-48.84,-11.12 -96.81,-22.11 -143.35,-33.69l0.26 -1.16 -309.59 -77.31 -59.72 239.78c0,0 166.56,38.18 163.05,40.53 90.91,22.69 107.35,82.87 104.62,130.57l-104.74 420.15c6.26,1.59 14.38,3.89 23.34,7.49 -7.49,-1.86 -15.46,-3.89 -23.73,-5.87l-146.81 588.57c-11.11,27.62 -39.31,69.07 -102.87,53.33 2.25,3.26 -163.17,-40.72 -163.17,-40.72l-111.46 256.98 292.15 72.83c54.35,13.63 107.61,27.89 160.06,41.3l-92.9 373.03 224.24 55.94 92 -369.07c61.26,16.63 120.71,31.97 178.91,46.43l-91.69 367.33 224.51 55.94 92.89 -372.33c382.82,72.45 670.67,43.24 791.83,-303.02 97.63,-278.78 -4.86,-439.58 -206.26,-544.44 146.69,-33.83 257.18,-130.31 286.64,-329.61l-0.07 -0.05zm-512.93 719.26c-69.38,278.78 -538.76,128.08 -690.94,90.29l123.28 -494.2c152.17,37.99 640.17,113.17 567.67,403.91zm69.43 -723.3c-63.29,253.58 -453.96,124.75 -580.69,93.16l111.77 -448.21c126.73,31.59 534.85,90.55 468.94,355.05l-0.02 0z"/>
  </g>

  <!-- OpCat Logo (positioned at bottom-right) -->
  <svg id="opcat" x="2660" y="2660" width="1432" height="1432" viewBox="0 0 1024 1024">
    <circle class="opcat-bg" cx="512" cy="512" r="512"/>
    <path class="opcat-symbol" d="M791.85,572.93c-34.77,113.4-113.42,195.76-231.81,211.97-33.06,4.45-66.06,4.73-98.75-1.57-18.98-3.87-37.19-9.67-55.27-17.17-93.91-38.34-162.99-120.01-172.1-225.15-22.05-224.03,160.17-327.9,303.2-314.7,86.88,11.65,164.68,58.36,207.3,133.67,34.04,60.14,42.34,136.93,18.87,203.25-24.4,73.49-101.19,110.5-156.15,106.07-11.21-.61-37.27-4.2-43.27-14.68-4.77-7.7,18.68-20.12,30.28-26.39,6.32-3.46,12.63-6.88,18.75-10.57,47.86-29.59,79-82.56,79.16-140.04-.03-110.25-142.28-196.53-261.98-128.99-13.08,7.58-24.83,16.41-36.78,27.15-86.48,75.73-82.14,194.35-3.44,270.66,75.78,66.13,208.28,73.71,305.41,21.05,37.35-22.14,68.29-56.38,91.46-89,2.97-3.98,6.01-9.63,5.13-5.63v.06Z"/>
  </svg>
</svg>
