<?xml version="1.0" encoding="UTF-8"?>
<svg id="Layer_3" data-name="Layer 3" xmlns="http://www.w3.org/2000/svg" viewBox="0 0 559.91 562.96">
  <defs>
    <style>
      .cls-1 {
        fill: #fff;
      }
    </style>
  </defs>
  <path class="cls-1" d="M559.75,347.73c-34.77,113.4-113.42,195.76-231.81,211.97-33.06,4.45-66.06,4.73-98.75-1.57-18.98-3.87-37.19-9.67-55.27-17.17C80.01,502.62,10.94,420.95,1.83,315.81-20.23,91.78,162-12.09,305.02,1.12c86.88,11.65,164.68,58.36,207.3,133.67,34.04,60.14,42.34,136.93,18.87,203.25-24.4,73.49-101.19,110.5-156.15,106.07-11.21-.61-37.27-4.2-43.27-14.68-4.77-7.7,18.68-20.12,30.28-26.39,6.32-3.46,12.63-6.88,18.75-10.57,47.86-29.59,79-82.56,79.16-140.04-.03-110.25-142.28-196.53-261.98-128.99-13.08,7.58-24.83,16.41-36.78,27.15-86.48,75.73-82.14,194.35-3.44,270.66,75.78,66.13,208.28,73.71,305.41,21.05,37.35-22.14,68.29-56.38,91.46-89,2.97-3.98,6.01-9.63,5.13-5.63v.06Z"/>
</svg>