<?xml version="1.0" encoding="UTF-8" standalone="no"?>
<!DOCTYPE svg PUBLIC "-//W3C//DTD SVG 1.1//EN" "http://www.w3.org/Graphics/SVG/1.1/DTD/svg11.dtd">
<svg xmlns="http://www.w3.org/2000/svg" version="1.1" viewBox="28.22 26.51 93.33 93.33">
<path fill="#fff" d="
  M 72.18 26.51
  A 0.40 0.40 0.0 0 1 72.71 26.89
  L 72.71 54.13
  A 0.70 0.69 85.1 0 1 72.14 54.82
  L 67.80 55.61
  A 1.15 1.15 0.0 0 1 66.78 55.27
  Q 62.45 50.73 56.97 47.75
  A 0.72 0.71 -63.4 0 0 55.97 48.09
  Q 52.22 56.66 53.35 66.09
  A 1.61 1.54 55.6 0 1 53.21 66.94
  Q 49.74 74.29 52.87 80.54
  C 56.67 88.14 65.05 92.92 73.10 95.01
  A 0.24 0.23 37.5 0 1 73.16 95.44
  L 62.78 101.44
  A 0.76 0.76 0.0 0 0 62.40 102.10
  L 62.40 113.23
  A 0.17 0.17 0.0 0 1 62.15 113.38
  C 47.38 105.66 34.15 91.82 33.82 74.43
  Q 33.43 54.06 33.75 40.75
  A 0.78 0.78 0.0 0 1 34.27 40.03
  L 72.18 26.51
  Z"
/>
<path fill="#fff" d="
  M 78.09 26.59
  L 115.95 40.10
  A 0.53 0.53 0.0 0 1 116.31 40.60
  Q 116.34 72.55 116.30 74.75
  C 115.86 97.25 93.73 112.04 75.45 119.84
  A 1.70 1.67 46.4 0 1 74.02 119.79
  L 66.31 115.96
  A 0.97 0.96 13.6 0 1 65.78 115.10
  L 65.78 104.06
  A 1.01 1.00 -12.5 0 1 66.37 103.15
  Q 71.74 100.66 82.63 94.64
  C 92.61 89.13 102.42 79.37 96.88 67.24
  A 2.36 2.33 36.2 0 1 96.68 66.01
  Q 97.71 56.70 94.07 48.24
  A 0.84 0.83 64.3 0 0 92.91 47.83
  Q 87.57 50.67 83.09 55.44
  A 1.12 1.11 31.5 0 1 81.90 55.72
  Q 79.76 54.93 78.09 54.94
  A 0.80 0.80 0.0 0 1 77.29 54.14
  L 77.29 27.16
  A 0.60 0.60 0.0 0 1 78.09 26.59
  Z"
/>
</svg>
