<?xml version="1.0" encoding="UTF-8"?>
<!DOCTYPE svg PUBLIC "-//W3C//DTD SVG 1.1//EN" "http://www.w3.org/Graphics/SVG/1.1/DTD/svg11.dtd">
<svg xmlns="http://www.w3.org/2000/svg" version="1.1" width="400px" height="400px" style="shape-rendering:geometricPrecision; text-rendering:geometricPrecision; image-rendering:optimizeQuality; fill-rule:evenodd; clip-rule:evenodd" xmlns:xlink="http://www.w3.org/1999/xlink">
<g><path style="opacity:1" fill="#01356e" d="M -0.5,-0.5 C 132.833,-0.5 266.167,-0.5 399.5,-0.5C 399.5,132.833 399.5,266.167 399.5,399.5C 266.167,399.5 132.833,399.5 -0.5,399.5C -0.5,266.167 -0.5,132.833 -0.5,-0.5 Z"/></g>
<g><path style="opacity:1" fill="#fcfdfb" d="M 296.5,223.5 C 281.023,253.401 256.69,264.734 223.5,257.5C 220.253,256.759 218.753,254.759 219,251.5C 231.912,245.713 243.245,237.713 253,227.5C 266.403,211.89 271.736,193.89 269,173.5C 264.165,153.661 251.998,140.494 232.5,134C 219.236,128.007 205.569,126.173 191.5,128.5C 178.533,130.035 167.199,135.035 157.5,143.5C 150.833,148.001 145.333,153.668 141,160.5C 139.546,163.071 138.38,165.738 137.5,168.5C 134.809,172.722 132.976,177.388 132,182.5C 127.795,203.282 131.628,222.282 143.5,239.5C 160.263,263.467 183.429,275.467 213,275.5C 223.704,275.6 234.204,274.266 244.5,271.5C 271.203,262.982 292.203,246.982 307.5,223.5C 303.041,247.653 291.041,268.32 271.5,285.5C 234.279,313.824 194.279,318.491 151.5,299.5C 138.704,291.717 127.037,282.384 116.5,271.5C 115.876,269.246 114.543,267.579 112.5,266.5C 94.2698,241.92 87.1032,214.253 91,183.5C 94.233,160.376 103.4,140.043 118.5,122.5C 156.991,85.4374 200.657,77.9374 249.5,100C 278.082,116.595 295.916,141.095 303,173.5C 305.198,190.779 303.032,207.445 296.5,223.5 Z"/></g>
<g><path style="opacity:1" fill="#02366e" d="M 223.5,257.5 C 223.5,258.5 223.5,259.5 223.5,260.5C 237.741,261.487 251.741,261.487 265.5,260.5C 264.5,261.333 263.5,262.167 262.5,263C 257.564,264.609 252.564,265.942 247.5,267C 247.833,267.333 248.167,267.667 248.5,268C 246.5,268.667 244.5,269.333 242.5,270C 243.416,270.278 244.082,270.778 244.5,271.5C 234.204,274.266 223.704,275.6 213,275.5C 183.429,275.467 160.263,263.467 143.5,239.5C 143.799,237.396 143.466,235.396 142.5,233.5C 137.906,228.503 135.739,222.503 136,215.5C 134.615,214.449 133.615,213.116 133,211.5C 132.333,202.167 132.333,192.833 133,183.5C 134.926,178.565 136.426,173.565 137.5,168.5C 138.38,165.738 139.546,163.071 141,160.5C 145.333,153.668 150.833,148.001 157.5,143.5C 162.712,143.491 166.712,141.324 169.5,137C 176.804,137.247 184.137,137.414 191.5,137.5C 191.5,136.5 191.5,135.5 191.5,134.5C 188.21,133.742 185.044,133.742 182,134.5C 181.517,133.552 181.351,132.552 181.5,131.5C 185.048,130.87 188.381,129.87 191.5,128.5C 205.569,126.173 219.236,128.007 232.5,134C 251.998,140.494 264.165,153.661 269,173.5C 271.736,193.89 266.403,211.89 253,227.5C 243.245,237.713 231.912,245.713 219,251.5C 218.753,254.759 220.253,256.759 223.5,257.5 Z"/></g>
<g><path style="opacity:1" fill="#0e3a66" d="M 191.5,128.5 C 188.381,129.87 185.048,130.87 181.5,131.5C 181.351,132.552 181.517,133.552 182,134.5C 185.044,133.742 188.21,133.742 191.5,134.5C 191.5,135.5 191.5,136.5 191.5,137.5C 184.137,137.414 176.804,137.247 169.5,137C 166.712,141.324 162.712,143.491 157.5,143.5C 167.199,135.035 178.533,130.035 191.5,128.5 Z"/></g>
<g><path style="opacity:1" fill="#0d3a68" d="M 118.5,122.5 C 103.4,140.043 94.233,160.376 91,183.5C 87.1032,214.253 94.2698,241.92 112.5,266.5C 111.292,265.766 109.959,265.433 108.5,265.5C 108.762,264.022 108.429,262.689 107.5,261.5C 101.533,253.899 96.8658,245.565 93.5,236.5C 92.6583,228.976 90.9916,221.642 88.5,214.5C 87.8333,206.833 87.1667,199.167 86.5,191.5C 85.5052,196.792 85.1718,202.125 85.5,207.5C 84.5,207.5 83.5,207.5 82.5,207.5C 83.8463,191.528 84.8463,175.528 85.5,159.5C 86.5,159.5 87.5,159.5 88.5,159.5C 88.2777,165.003 87.9443,170.503 87.5,176C 87.8333,178.5 88.1667,181 88.5,183.5C 91.1558,175.421 92.6558,167.088 93,158.5C 93.4709,156.754 94.1376,155.087 95,153.5C 95.3173,155.301 95.984,155.634 97,154.5C 99.2936,150.286 100.794,145.786 101.5,141C 101.231,139.393 100.397,138.226 99,137.5C 98.1163,135.359 98.6163,133.693 100.5,132.5C 101.316,134.287 102.316,135.954 103.5,137.5C 104.425,136.359 105.259,136.359 106,137.5C 106.662,135.187 107.162,132.854 107.5,130.5C 108.833,130.5 110.167,130.5 111.5,130.5C 111.626,128.8 112.293,127.3 113.5,126C 111.818,124.105 111.318,121.938 112,119.5C 113.509,121.919 115.675,122.919 118.5,122.5 Z"/></g>
<g><path style="opacity:1" fill="#113559" d="M 137.5,168.5 C 136.426,173.565 134.926,178.565 133,183.5C 132.333,192.833 132.333,202.167 133,211.5C 133.615,213.116 134.615,214.449 136,215.5C 135.739,222.503 137.906,228.503 142.5,233.5C 143.466,235.396 143.799,237.396 143.5,239.5C 131.628,222.282 127.795,203.282 132,182.5C 132.976,177.388 134.809,172.722 137.5,168.5 Z"/></g>
<g><path style="opacity:1" fill="#153a62" d="M 296.5,223.5 C 295.301,228.719 293.801,233.719 292,238.5C 294.877,236.423 297.543,234.089 300,231.5C 301.413,228.636 302.913,225.97 304.5,223.5C 305.5,223.5 306.5,223.5 307.5,223.5C 292.203,246.982 271.203,262.982 244.5,271.5C 244.082,270.778 243.416,270.278 242.5,270C 244.5,269.333 246.5,268.667 248.5,268C 248.167,267.667 247.833,267.333 247.5,267C 252.564,265.942 257.564,264.609 262.5,263C 263.5,262.167 264.5,261.333 265.5,260.5C 251.741,261.487 237.741,261.487 223.5,260.5C 223.5,259.5 223.5,258.5 223.5,257.5C 256.69,264.734 281.023,253.401 296.5,223.5 Z"/></g>
<g><path style="opacity:1" fill="#113864" d="M 116.5,271.5 C 127.037,282.384 138.704,291.717 151.5,299.5C 148.833,299.167 146.167,298.833 143.5,298.5C 143.67,297.178 143.337,296.011 142.5,295C 140.392,294.64 138.392,293.973 136.5,293C 132.696,289.044 128.363,284.877 123.5,280.5C 123.436,281.365 123.103,282.365 122.5,283.5C 123.09,284.799 124.09,285.632 125.5,286C 124.407,287.365 123.074,287.699 121.5,287C 120.221,285.354 118.555,284.187 116.5,283.5C 115.232,281.283 113.732,279.283 112,277.5C 111.517,276.552 111.351,275.552 111.5,274.5C 114.861,276.484 116.528,275.484 116.5,271.5 Z"/></g>
<g><path style="opacity:1" fill="#0b396a" d="M 271.5,285.5 C 271.767,288.474 271.267,291.474 270,294.5C 268.581,295.46 267.081,296.293 265.5,297C 267.125,297.853 267.458,298.853 266.5,300C 264.598,300.199 263.098,301.033 262,302.5C 261.851,299.721 261.017,299.221 259.5,301C 260.741,302.487 260.241,303.32 258,303.5C 254.542,304.286 251.042,304.62 247.5,304.5C 247.5,305.833 247.5,307.167 247.5,308.5C 242.78,308.775 242.446,307.941 246.5,306C 243.904,305.542 241.737,306.375 240,308.5C 237.502,307.402 235.002,307.568 232.5,309C 235.167,309.667 235.167,310.333 232.5,311C 226.167,311.333 219.833,311.667 213.5,312C 212,312.5 210.5,313 209,313.5C 191.044,312.556 173.21,310.389 155.5,307C 156.337,305.989 156.67,304.822 156.5,303.5C 153.633,303.631 151.967,302.297 151.5,299.5C 194.279,318.491 234.279,313.824 271.5,285.5 Z"/></g>
</svg>
